<svg xmlns="http://www.w3.org/2000/svg" width="900" height="300" viewBox="0 0 900 300" role="img" aria-labelledby="title desc">
  <title id="title">Nabilah Ratna Ayu Azalia's learning stage</title><desc id="desc">A motion-free pastel idol stage with curtains, spotlights, stars, ribbons, and audience glow sticks.</desc>
  <defs><linearGradient id="bg" x1="0" y1="0" x2="1" y2="1"><stop stop-color="#fff9fc"/><stop offset=".55" stop-color="#ffe7f0"/><stop offset="1" stop-color="#f3dcff"/></linearGradient><linearGradient id="curtain" x1="0" y1="0" x2="1" y2="0"><stop stop-color="#d65386"/><stop offset=".5" stop-color="#f28db4"/><stop offset="1" stop-color="#c83f76"/></linearGradient></defs>
  <rect width="900" height="300" rx="28" fill="url(#bg)"/><path d="M0 0h205c-10 51-27 96-60 134-34 40-78 55-145 64V0Zm900 0H695c10 51 27 96 60 134 34 40 78 55 145 64V0Z" fill="url(#curtain)"/><path d="M245 0 355 230H130L245 0Zm410 0 115 230H545L655 0Z" fill="#fff" opacity=".44"/>
  <g fill="#c43e73" aria-hidden="true"><path d="m301 47 5 12 12 5-12 5-5 12-5-12-12-5 12-5 5-12Z"/><path d="m599 48 4 9 9 4-9 4-4 9-4-9-9-4 9-4 4-9Z"/><circle cx="347" cy="48" r="4"/><circle cx="556" cy="50" r="4"/></g>
  <path d="M333 86h234l-16 62-101 25-101-25Z" fill="#fff" stroke="#dd7198" stroke-width="2"/><path d="m349 90 15-23 17 23m138 0 17-23 15 23" fill="none" stroke="#dd7198" stroke-width="3"/><text x="450" y="119" text-anchor="middle" font-family="Segoe UI,Arial,sans-serif" font-size="13" font-weight="700" letter-spacing="3" fill="#b33968">WELCOME TO THE STAGE</text><text x="450" y="151" text-anchor="middle" font-family="Segoe UI,Arial,sans-serif" font-size="27" font-weight="700" fill="#762743">Nabilah Ratna Ayu Azalia</text>
  <path d="M296 186h308" stroke="#d96791" stroke-width="2"/><text x="450" y="211" text-anchor="middle" font-family="Segoe UI,Arial,sans-serif" font-size="15" fill="#633343">learning in public · one rehearsal at a time</text>
  <path d="M0 252c149-23 273-18 450 8 177-26 301-31 450-8v48H0Z" fill="#ad3e70" opacity=".88"/><g stroke-linecap="round" stroke-width="7" aria-hidden="true"><g stroke="#ffb2ce"><path d="m58 280 9-28"/><path d="m112 282-3-31"/><path d="m168 282 12-27"/><path d="m735 282-10-29"/><path d="m794 281 3-31"/><path d="m850 280-11-27"/></g><g stroke="#ddc2ff"><path d="m85 284-7-25"/><path d="m139 285 6-28"/><path d="m762 284 7-25"/><path d="m822 284-5-27"/></g></g>
</svg>
